# xmcd
#
# Track frame offsets: 
#        150
#        10169
#        19946
#        31364
#        41412
#        51724
#        61845
#        73909
#        86034
#        97878
#        109501
#        120067
#        131737
#        143321
#        155249
#        166528
#        178256
#
# Disc length: 2533 seconds
#
# Revision: 0
# Processed by: cddbd v1.5.2PL0 Copyright (c) Steve Scherf et al.
# Submitted via: ExactAudioCopy v1.0b4
#
DISCID=db09e311
DTITLE=Chubby Checker - The King Of Twist CD 2
DYEAR=1900
DGENRE=R&B
TTITLE0="Mexican Hat" Twist
TTITLE1=The Slop
TTITLE2=The Pony
TTITLE3=Blueberry Hill
TTITLE4=Your Feet's To Big
TTITLE5=Hound Dog
TTITLE6=Twist Train
TTITLE7=Mister Twister
TTITLE8=Hold Tight
TTITLE9=Shake, Rattle And Roll
TTITLE10=But Girls!
TTITLE11=At The Hop
TTITLE12=Twistin' USA
TTITLE13=The Hully Gully
TTITLE14=Pony Time
TTITLE15=The Watusi
TTITLE16=Oh Susannah
EXTD=
EXTT0=
EXTT1=
EXTT2=
EXTT3=
EXTT4=
EXTT5=
EXTT6=
EXTT7=
EXTT8=
EXTT9=
EXTT10=
EXTT11=
EXTT12=
EXTT13=
EXTT14=
EXTT15=
EXTT16=
PLAYORDER=
